{"title":"The.Legend.of.Tarzan.2016.720p.HDRIP.x264.AAC-SHOWSCEN","uid":15748622,"size":3078136819,"categoryP":"video","categoryS":"movies","magnet":"?xt=urn:btih:0b9c7ab06656fc3476ba4aedfd46dda5e2c4ef44&amp;dn=The.Legend.of.Tarzan.2016.720p.HDRIP.x264.AAC-SHOWSCEN&amp;tr=udp%3A%2F%2Ftracker.leechers-paradise.org%3A6969&amp;tr=udp%3A%2F%2Fzer0day.ch%3A1337&amp;tr=udp%3A%2F%2Fopen.demonii.com%3A1337&amp;tr=udp%3A%2F%2Ftracker.coppersurfer.tk%3A6969&amp;tr=udp%3A%2F%2Fexodus.desync.com%3A6969","seeders":235,"leechers":68,"uploader":"showscen","files":11,"time":1473001278,"description":"[color=red][b]Note : we are back with other exclusive , this version is clean no subs no sutter issue too , there many pics sample inside the torrent and video sample u can check and there english subs when needed, enjoy \r\nsee u soon.[/b][/color]\r\n\r\n---\r\nsample pics :  \nhttp://extraimago.com/images/2016/09/04/6d9e77d34d6a18845a85aad927224738.jpg \nhttp://extraimago.com/images/2016/09/04/61c2f6d6aded8a676976759b8cc03665.jpg \nhttp://extraimago.com/images/2016/09/04/046ba0afef105ace9aa3f3317da81410.jpg\r\n[http://extraimago.com/images/2016/09/04/82bf64f37cd355b0ad9bdc065d15382c.jpg\r\n\r\n---\r\nGeneral\r\nComplete name : /home/psb9581/files/The.Legend.of.Tarzan.2016.720p.HDRIP.x264.AAC-SHOWSCEN/The.Legend.of.Tarzan.2016.720p.HDRIP.x264.AAC-SHOWSCEN.mp4\r\nFormat : MPEG-4\r\nFormat profile : Base Media\r\nCodec ID : isom\r\nFile size : 2.85 GiB\r\nDuration : 1h 49mn\r\nOverall bit rate mode : Variable\r\nOverall bit rate : 3 709 Kbps\r\nMovie name : SHOWSCEN\r\nWriting application : Lavf55.37.101\r\n\r\nVideo\r\nID : 1\r\nFormat : AVC\r\nFormat/Info : Advanced Video Codec\r\nFormat profile :   \r\nFormat settings, CABAC : No\r\nFormat settings, ReFrames : 1 frame\r\nFormat settings, GOP : M=1, N=12\r\nCodec ID : avc1\r\nCodec ID/Info : Advanced Video Coding\r\nDuration : 1h 49mn\r\nBit rate mode : Variable\r\nBit rate : 3 503 Kbps\r\nMaximum bit rate : 7 000 Kbps\r\nWidth : 1 280 pixels\r\nHeight : 536 pixels\r\nDisplay aspect ratio : 2.40:1\r\nFrame rate mode : Constant\r\nFrame rate : 29.970 fps\r\nColor space : YUV\r\nChroma subsampling : 4:2:0\r\nBit depth : 8 bits\r\nScan type : Progressive\r\nBits/(Pixel*Frame) : 0.170\r\nStream size : 2.69 GiB (94%)\r\n\r\nAudio\r\nID : 2\r\nFormat : AAC\r\nFormat/Info : Advanced Audio Codec\r\nFormat profile : LC\r\nCodec ID : 40\r\nDuration : 1h 49mn\r\nDuration_LastFrame : -9ms\r\nBit rate mode : Constant\r\nBit rate : 192 Kbps\r\nChannel(s) : 2 channels\r\nChannel positions : Front: L R\r\nSampling rate : 44.1 KHz\r\nCompression mode : Lossy\r\nStream size : 151 MiB (5%)","torrent":{"xt":"urn:btih:0b9c7ab06656fc3476ba4aedfd46dda5e2c4ef44","amp;dn":"The.Legend.of.Tarzan.2016.720p.HDRIP.x264.AAC-SHOWSCEN","amp;tr":["udp%3A%2F%2Ftracker.leechers-paradise.org%3A6969","udp%3A%2F%2Fzer0day.ch%3A1337","udp%3A%2F%2Fopen.demonii.com%3A1337","udp%3A%2F%2Ftracker.coppersurfer.tk%3A6969","udp%3A%2F%2Fexodus.desync.com%3A6969"],"infoHash":"0b9c7ab06656fc3476ba4aedfd46dda5e2c4ef44","infoHashBuffer":{"type":"Buffer","data":[11,156,122,176,102,86,252,52,118,186,74,237,253,70,221,165,226,196,239,68]},"announce":[],"urlList":[]}}